Coordinates
version=1
nRows=22
nColumns=24
inDegrees=yes

Units are S.I. units (second, meters, Newtons, ...)
Angles are in degrees.

endheader
time	pelvis_tilt	pelvis_list	pelvis_rotation	pelvis_tx	pelvis_ty	pelvis_tz	hip_flexion_r	hip_adduction_r	hip_rotation_r	knee_angle_r	ankle_angle_r	subtalar_angle_r	mtp_angle_r	hip_flexion_l	hip_adduction_l	hip_rotation_l	knee_angle_l	ankle_angle_l	subtalar_angle_l	mtp_angle_l	lumbar_extension	lumbar_bending	lumbar_rotation
      1.63500000	     15.77638295	     -1.83911137	     -2.45668704	     -0.13238661	      0.96184753	     -0.00007427	      2.57032681	     -3.31093213	     -6.76770018	    -23.65327198	     20.37498932	      5.54767653	     27.63211650	    -24.76819379	      0.87559859	     -5.96068232	      2.16284713	     12.16807417	     13.59396823	      6.06912813	    -30.44908563	     -0.23368660	     -0.56582439
      1.64000000	     15.89280558	     -1.81495280	     -2.39847603	     -0.12836373	      0.96152659	      0.00011640	      2.34701801	     -3.18932043	     -6.53686784	    -21.58991954	     20.11431040	      5.43993895	     27.85535082	    -25.19995272	      0.87566251	     -6.05101007	      2.23280146	     12.34118177	     13.88942072	      6.15316035	    -30.57448033	     -0.24750569	     -0.63667548
      1.64500000	     15.96622862	     -1.78899964	     -2.35446852	     -0.12433910	      0.96113270	      0.00037522	      2.15274330	     -3.06283375	     -6.25850965	    -19.49233629	     19.62983450	      5.18092712	     30.15985631	    -25.56226414	      0.87597568	     -6.19775830	      2.25166287	     12.54587725	     14.22712780	      6.35266650	    -30.65156810	     -0.26980095	     -0.68233491
      1.65000000	     16.07252295	     -1.72979493	     -2.27847645	     -0.12022495	      0.96073371	      0.00055980	      1.89004802	     -2.98902690	     -6.03034424	    -17.40588564	     19.34272747	      5.18478182	     30.15795194	    -25.98112092	      0.90105870	     -6.25668717	      2.31393515	     12.72871089	     14.47816805	      6.38151685	    -30.75077235	     -0.30445058	     -0.77911318
      1.65500000	     16.17300703	     -1.65973305	     -2.22158854	     -0.11609496	      0.96029096	      0.00080418	      1.62175248	     -2.92646956	     -5.75639786	    -15.33162734	     19.00973049	      5.16402183	     30.21569965	    -26.37961227	      0.93985879	     -6.37472954	      2.34103340	     12.92706679	     14.81824012	      6.40490863	    -30.84184852	     -0.35792771	     -0.84548265
      1.66000000	     16.26275371	     -1.56735233	     -2.16993473	     -0.11193145	      0.95979277	      0.00107688	      1.35626676	     -2.89216643	     -5.47146390	    -13.29242696	     18.64209202	      5.15324862	     30.33336649	    -26.76185528	      1.00001216	     -6.49412183	      2.35649535	     13.13278410	     15.16214157	      6.41623324	    -30.91457587	     -0.43566141	     -0.91533567
      1.66500000	     16.34383695	     -1.43704614	     -2.16408822	     -0.10777154	      0.95924224	      0.00144546	      1.10797990	     -2.90000000	     -5.11050274	    -11.31069939	     18.21263894	      5.08224655	     30.66376949	    -27.12612736	      1.11294972	     -6.68057145	      2.35251040	     13.32051078	     15.60845449	      6.39369768	    -30.97575300	     -0.57373477	     -0.94700596
      1.67000000	     16.41995998	     -1.31465923	     -2.08526098	     -0.10350821	      0.95864814	      0.00168216	      0.84395690	     -2.91588605	     -4.89732970	     -9.39582502	     17.82512090	      5.13782274	     30.88043016	    -27.49247151	      1.18822157	     -6.72319908	      2.36011321	     13.54609262	     15.85760250	      6.38301650	    -31.01917962	     -0.65926138	     -1.05123962
      1.67500000	     16.47462411	     -1.14744282	     -2.07528458	     -0.09930005	      0.95798827	      0.00205651	      0.62451810	     -2.97560233	     -4.55200269	     -7.54627556	     17.18549078	      4.87878560	     33.48085462	    -27.81452542	      1.33149589	     -6.86010793	      2.32308773	     13.79499550	     16.23850295	      5.95041913	    -31.04352461	     -0.82544273	     -1.09325494
      1.68000000	     16.54330146	     -0.98022253	     -2.02596812	     -0.09498328	      0.95732342	      0.00234072	      0.40440204	     -3.05428913	     -4.37423928	     -5.86505908	     16.81540784	      5.01706034	     33.48406598	    -28.17153705	      1.46096293	     -6.91294440	      2.32260990	     13.98303176	     16.50557398	      5.96557216	    -31.06910255	     -0.96371882	     -1.17611456
      1.68500000	     16.61219749	     -0.79677106	     -1.99999416	     -0.09067033	      0.95662585	      0.00267943	      0.20752445	     -3.15138817	     -4.17448250	     -4.31077892	     16.44623019	      5.09851605	     33.54154959	    -28.52057696	      1.61390684	     -6.99416211	      2.30264638	     14.17390095	     16.80392583	      5.98297249	    -31.09485127	     -1.12849320	     -1.23752747
      1.69000000	     16.67131725	     -0.61066088	     -1.97667528	     -0.08631991	      0.95590591	      0.00302838	      0.04162756	     -3.25402671	     -4.00962222	     -2.89557290	     16.09204255	      5.17763331	     33.65253259	    -28.85704993	      1.76820009	     -7.07037630	      2.27340082	     14.36598707	     17.09304549	      6.00093355	    -31.10431757	     -1.29287354	     -1.29379012
      1.69500000	     16.67995726	     -0.37273682	     -1.97415123	     -0.08204011	      0.95511323	      0.00337847	      0.00089497	     -3.41901046	     -3.90463652	     -1.70253218	     15.79008420	      5.39248833	     33.71396767	    -29.11516392	      1.98117412	     -7.08708801	      2.20926857	     14.55458978	     17.25841530	      6.02178270	    -31.06536656	     -1.51202853	     -1.35736418
      1.70000000	     16.80766165	     -0.23071776	     -1.92349277	     -0.07755512	      0.95447386	      0.00374641	     -0.23795930	     -3.47013176	     -3.82419668	     -0.51935383	     15.49906454	      5.41811072	     33.89013249	    -29.53713530	      2.07601732	     -7.18628856	      2.17965423	     14.72388843	     17.60925373	      6.05315119	    -31.13495467	     -1.61726662	     -1.39488831
      1.70500000	     16.87999176	     -0.05845687	     -1.91029843	     -0.07311285	      0.95375584	      0.00415885	     -0.34764870	     -3.55568125	     -3.75803434	      0.43947608	     15.23731514	      5.51621646	     34.16334502	    -29.89114371	      2.21584714	     -7.27279289	      2.14102072	     14.91903937	     17.89279094	      6.08977527	    -31.14695336	     -1.76505526	     -1.43609082
      1.71000000	     16.96188554	      0.12336431	     -1.87152227	     -0.06867358	      0.95307638	      0.00453650	     -0.44585463	     -3.65062659	     -3.77102446	      1.23986590	     15.04496057	      5.65272716	     34.39179313	    -30.23160957	      2.34977335	     -7.31018098	      2.05481064	     15.07848521	     18.11207203	      6.12981985	    -31.17097367	     -1.90668706	     -1.47522072
      1.71500000	     16.96953332	      0.31238493	     -1.86714367	     -0.06425604	      0.95229564	      0.00495161	     -0.41196918	     -3.75463495	     -3.72749598	      1.84123344	     14.93215287	      5.83078763	     34.44554828	    -30.49831343	      2.50439581	     -7.29591177	      1.98579579	     15.24838394	     18.20033282	      6.15585620	    -31.11569939	     -2.06409640	     -1.50294455
      1.72000000	     17.15364579	      0.45055268	     -1.80479591	     -0.05969123	      0.95177807	      0.00534332	     -0.60696150	     -3.79471561	     -3.84867999	      2.36569627	     14.79614176	      5.97300075	     34.63719657	    -30.96245781	      2.58423396	     -7.39479563	      1.90441701	     15.40056380	     18.51636207	      6.22356237	    -31.23760851	     -2.14778222	     -1.56100200
      1.72500000	     17.26600878	      0.57056981	     -1.76156384	     -0.05511393	      0.95117216	      0.00577732	     -0.69326750	     -3.81482209	     -3.91354067	      2.72591228	     14.74917715	      6.15235650	     34.88319119	    -31.35404181	      2.64762757	     -7.45665044	      1.83062373	     15.55813935	     18.77678321	      6.31278166	    -31.27957893	     -2.21737141	     -1.57459897
      1.73000000	     17.32296791	      0.73114800	     -1.73722937	     -0.05061094	      0.95050594	      0.00622149	     -0.68140149	     -3.88198669	     -3.89260834	      2.92291883	     14.72452741	      6.25376503	     34.93426324	    -31.66446143	      2.75689850	     -7.42991322	      1.72569420	     15.71970875	     18.85039411	      6.34875393	    -31.26834653	     -2.33186915	     -1.60137930
      1.73500000	     17.52106143	      0.81324934	     -1.65721955	     -0.04592614	      0.95006083	      0.00663573	     -0.85218411	     -3.85690217	     -4.05888403	      3.02393849	     14.73615514	      6.47680505	     35.12523247	    -32.15318830	      2.76380006	     -7.52450503	      1.64605830	     15.83342916	     19.15985241	      6.46466092	    -31.39354641	     -2.34002411	     -1.64423200
      1.74000000	     17.64939042	      0.93501493	     -1.60152435	     -0.04127847	      0.94951972	      0.00708217	     -0.92870110	     -3.87881213	     -4.10172943	      3.00926804	     14.80224661	      6.62584262	     35.24779822	    -32.54226049	      2.81607364	     -7.56277151	      1.52155177	     15.97748990	     19.31536661	      6.56169982	    -31.44579186	     -2.39614418	     -1.69060004
